# xmcd CD database file
#
# Track frame offsets:
#	150
#	19273
#	44282
#	71317
#	101142
#	162368
#	193821
#	220569
#	236244
#	262598
#	295407
#
# Disc length: 4204 seconds
#
# Revision: 0
# Processed by: cddbd v1.5.2PL0 Copyright (c) Steve Scherf et al.
# Submitted via: CDex 1.50
#
DISCID=9b106a0b
DTITLE=Roy Hargrove Big Band - Emergence
DYEAR=2009
DGENRE=Jazz
TTITLE0=Velera
TTITLE1=Ms. Garvey, Ms. Garvey
TTITLE2=My funny valentine
TTITLE3=Mambo for Roy
TTITLE4=Requiem
TTITLE5=September in the rain
TTITLE6=Everytime we say goodbye
TTITLE7=La puerta (feat. Roberta Gambarini)
TTITLE8=Roy Allan
TTITLE9=Tschpiso
TTITLE10=Trust
EXTD=YEAR: 2009
EXTT0=
EXTT1=
EXTT2=
EXTT3=
EXTT4=
EXTT5=
EXTT6=
EXTT7=
EXTT8=
EXTT9=
EXTT10=
PLAYORDER=
